<svg width="35" height="35" viewBox="0 0 35 35" fill="#797575" xmlns="http://www.w3.org/2000/svg">
<path d="M34.0361 9.70913L30.8846 12.8606C30.5633 13.1819 30.0437 13.1819 29.7224 12.8606L22.1342 5.27243C21.8129 4.95112 21.8129 4.43157 22.1342 4.11027L25.2857 0.958778C26.5641 -0.319593 28.6423 -0.319593 29.9275 0.958778L34.0361 5.06734C35.3213 6.34571 35.3213 8.42392 34.0361 9.70913ZM19.427 6.81741L1.47501 24.7693L0.0257252 33.0753C-0.172526 34.1964 0.805058 35.1672 1.9262 34.9758L10.2323 33.5196L28.1843 15.5678C28.5056 15.2465 28.5056 14.7269 28.1843 14.4056L20.596 6.81741C20.2679 6.49611 19.7483 6.49611 19.427 6.81741ZM8.48217 23.2311C8.10618 22.8552 8.10618 22.2536 8.48217 21.8776L19.01 11.3498C19.386 10.9738 19.9876 10.9738 20.3636 11.3498C20.7396 11.7258 20.7396 12.3274 20.3636 12.7034L9.83575 23.2311C9.45975 23.6071 8.85817 23.6071 8.48217 23.2311ZM6.01428 28.9804H9.29569V31.4619L4.8863 32.2344L2.76023 30.1084L3.53272 25.699H6.01428V28.9804Z" />
</svg>
