<svg width="34" height="39" viewBox="0 0 34 39" fill="#797575" xmlns="http://www.w3.org/2000/svg">
<path d="M20.6429 10.3594C21.3107 10.3594 21.8571 9.81094 21.8571 9.14062C21.8571 8.47031 21.3107 7.92188 20.6429 7.92188C19.975 7.92188 19.4286 8.47031 19.4286 9.14062C19.4286 9.81094 19.975 10.3594 20.6429 10.3594ZM34 27.3V1.95C34 0.73125 33.2714 0 32.0571 0H7.28571C3.15714 0 0 3.16875 0 7.3125V31.6875C0 35.8312 3.15714 39 7.28571 39H32.0571C33.0286 39 34 38.2687 34 37.05V35.8312C34 35.3438 33.7571 34.8563 33.2714 34.3688C33.0286 33.15 33.0286 29.7375 33.2714 28.7625C33.7571 28.5188 34 28.0312 34 27.3ZM18.2143 4.26562C21.5688 4.26562 24.2857 6.45176 24.2857 9.14062C24.2857 10.7326 23.3219 12.1266 21.8571 13.0178V14.0156C21.8571 14.6859 21.3107 15.2344 20.6429 15.2344H15.7857C15.1179 15.2344 14.5714 14.6859 14.5714 14.0156V13.0178C13.1067 12.1266 12.1429 10.7326 12.1429 9.14062C12.1429 6.45176 14.8598 4.26562 18.2143 4.26562ZM9.47143 17.0092L9.94955 15.8895C10.0786 15.5771 10.4353 15.44 10.7464 15.5695L18.2067 18.7764L25.6746 15.5695C25.9857 15.44 26.3424 15.5771 26.4714 15.8895L26.9496 17.0092C27.0786 17.3215 26.942 17.6795 26.6308 17.809L21.2955 20.1094L26.6308 22.4021C26.942 22.5316 27.0786 22.8896 26.9496 23.202L26.4714 24.3217C26.3424 24.634 25.9857 24.7711 25.6746 24.6416L18.2143 21.4348L10.754 24.6492C10.4429 24.7787 10.0862 24.6416 9.95714 24.3293L9.47902 23.2096C9.35 22.8973 9.48661 22.5393 9.79777 22.4098L15.1406 20.117L9.79018 17.809C9.47902 17.6795 9.34241 17.3215 9.47143 17.0092ZM28.9 34.125H7.28571C5.82857 34.125 4.85714 33.15 4.85714 31.6875C4.85714 30.225 6.07143 29.25 7.28571 29.25H28.9V34.125ZM15.7857 10.3594C16.4536 10.3594 17 9.81094 17 9.14062C17 8.47031 16.4536 7.92188 15.7857 7.92188C15.1179 7.92188 14.5714 8.47031 14.5714 9.14062C14.5714 9.81094 15.1179 10.3594 15.7857 10.3594Z" />
</svg>
