<svg width="38" height="38" viewBox="0 0 38 38" fill="#797575" xmlns="http://www.w3.org/2000/svg">
<path d="M11.7904 0.0113492C10.5909 -0.101468 9.47466 0.636295 9.16813 1.80157L8.06891 5.97802C21.9943 6.3855 31.4145 15.6721 32.0038 29.5063L36.2299 28.3351C37.3967 28.0114 38.1218 26.8744 37.9831 25.6705C36.4333 12.2527 25.292 1.28573 11.7904 0.0113492ZM7.45065 8.32417L0.0396544 36.4905C-0.0142212 36.6951 -0.0131819 36.9103 0.0426672 37.1144C0.0985164 37.3185 0.2072 37.5043 0.357755 37.6529C0.50831 37.8016 0.69541 37.908 0.900183 37.9612C1.10496 38.0145 1.32016 38.0128 1.52408 37.9564L29.6539 30.1557C29.337 17.1751 20.5188 8.47261 7.45065 8.32714V8.32417ZM9.49916 30.8764C9.02941 30.8764 8.57021 30.7371 8.17963 30.4761C7.78905 30.2151 7.48463 29.8442 7.30487 29.4102C7.1251 28.9762 7.07807 28.4987 7.16971 28.038C7.26135 27.5772 7.48756 27.154 7.81972 26.8219C8.15188 26.4897 8.57508 26.2635 9.0358 26.1719C9.49652 26.0802 9.97407 26.1272 10.4081 26.307C10.842 26.4868 11.213 26.7912 11.474 27.1818C11.7349 27.5724 11.8742 28.0316 11.8742 28.5013C11.8742 29.1312 11.624 29.7353 11.1786 30.1807C10.7332 30.6262 10.1291 30.8764 9.49916 30.8764ZM13.0618 19.5947C12.592 19.5947 12.1328 19.4554 11.7423 19.1944C11.3517 18.9335 11.0473 18.5625 10.8675 18.1285C10.6877 17.6945 10.6407 17.217 10.7323 16.7563C10.824 16.2955 11.0502 15.8723 11.3823 15.5402C11.7145 15.208 12.1377 14.9818 12.5984 14.8902C13.0591 14.7985 13.5367 14.8456 13.9707 15.0253C14.4047 15.2051 14.7756 15.5095 15.0366 15.9001C15.2976 16.2907 15.4369 16.7499 15.4369 17.2196C15.4369 17.8495 15.1866 18.4537 14.7412 18.8991C14.2958 19.3445 13.6917 19.5947 13.0618 19.5947ZM20.7808 27.3138C20.311 27.3138 19.8518 27.1745 19.4613 26.9135C19.0707 26.6525 18.7663 26.2816 18.5865 25.8476C18.4067 25.4136 18.3597 24.936 18.4513 24.4753C18.543 24.0146 18.7692 23.5914 19.1014 23.2592C19.4335 22.9271 19.8567 22.7009 20.3174 22.6092C20.7782 22.5176 21.2557 22.5646 21.6897 22.7444C22.1237 22.9241 22.4946 23.2286 22.7556 23.6191C23.0166 24.0097 23.1559 24.4689 23.1559 24.9387C23.1559 25.5686 22.9056 26.1727 22.4602 26.6181C22.0148 27.0635 21.4107 27.3138 20.7808 27.3138Z" />
</svg>
