<svg width="34" height="42" viewBox="0 0 34 42"  fill='none' xmlns="http://www.w3.org/2000/svg">
<path d="M16.9918 1.24699C17.0572 1.63253 18.3077 8.99892 18.3077 11.8126C18.3077 16.1028 16.0356 19.1626 12.6764 20.393L13.7308 39.9246C13.788 41.0484 12.8971 42 11.7692 42H6.53846C5.41875 42 4.51971 41.0566 4.57692 39.9246L5.63125 20.393C2.26394 19.1626 0 16.0946 0 11.8126C0 8.99072 1.25048 1.63253 1.31587 1.24699C1.5774 -0.418241 5.01827 -0.44285 5.23077 1.33722V12.92C5.33702 13.1989 6.4649 13.1825 6.53846 12.92C6.65288 10.8446 7.18413 1.50129 7.19231 1.288C7.46202 -0.418241 10.8457 -0.418241 11.1072 1.288C11.1236 1.50949 11.6466 10.8446 11.7611 12.92C11.8346 13.1825 12.9707 13.1989 13.0687 12.92V1.33722C13.2812 -0.434647 16.7303 -0.418241 16.9918 1.24699ZM26.7341 24.6833L25.5082 39.8672C25.4101 41.0156 26.3173 42 27.4615 42H32.0385C33.1255 42 34 41.1223 34 40.0313V1.96886C34 0.886052 33.1255 0.000117243 32.0385 0.000117243C25.2957 0.000117243 13.9433 14.6427 26.7341 24.6833Z" fill="#797575"/>
</svg>
